<svg xmlns="http://www.w3.org/2000/svg" viewBox="0 0 160.58 142.09"><defs><style>.cls-1{fill:#fff;}.cls-2{fill:#1fbaed;}</style></defs><title>merge</title><g id="Logo"><path class="cls-1" d="M513.51,291.5a16.4,16.4,0,0,0-24.19-2.32c-6.33,5.75-6.76,15.61-1.66,22.47l32.86,44.14-33.1,44.46c-5.11,6.86-4.67,16.72,1.66,22.47a16.4,16.4,0,0,0,24.19-2.32l46.2-62.06a4.29,4.29,0,0,0,0-5.12Z" transform="translate(-483.92 -284.91)"/><path class="cls-2" d="M614.91,291.5a16.4,16.4,0,0,1,24.19-2.32c6.33,5.75,6.76,15.61,1.66,22.47L607.9,355.79,641,400.25c5.11,6.86,4.67,16.72-1.66,22.47a16.4,16.4,0,0,1-24.19-2.32L569,358.35a4.29,4.29,0,0,1,0-5.12Z" transform="translate(-483.92 -284.91)"/></g></svg>